<?xml version="1.0" encoding="UTF-8" standalone="no"?>
<!-- Created with Inkscape (http://www.inkscape.org/) -->

<svg
   xmlns:dc="http://purl.org/dc/elements/1.1/"
   xmlns:cc="http://creativecommons.org/ns#"
   xmlns:rdf="http://www.w3.org/1999/02/22-rdf-syntax-ns#"
   xmlns:svg="http://www.w3.org/2000/svg"
   xmlns="http://www.w3.org/2000/svg"
   xmlns:sodipodi="http://sodipodi.sourceforge.net/DTD/sodipodi-0.dtd"
   xmlns:inkscape="http://www.inkscape.org/namespaces/inkscape"
   id="svg3140"
   version="1.1"
   inkscape:version="0.48.4 r9939"
   width="256.19"
   height="256.19"
   sodipodi:docname="logo.svg"
   inkscape:export-filename="/home/pivarski/diana/scikit-hep/etc/logo_800.png"
   inkscape:export-xdpi="281.04001"
   inkscape:export-ydpi="281.04001">
  <metadata
     id="metadata3146">
    <rdf:RDF>
      <cc:Work
         rdf:about="">
        <dc:format>image/svg+xml</dc:format>
        <dc:type
           rdf:resource="http://purl.org/dc/dcmitype/StillImage" />
        <dc:title></dc:title>
      </cc:Work>
    </rdf:RDF>
  </metadata>
  <defs
     id="defs3144" />
  <sodipodi:namedview
     pagecolor="#ffffff"
     bordercolor="#666666"
     borderopacity="1"
     objecttolerance="10"
     gridtolerance="10"
     guidetolerance="10"
     inkscape:pageopacity="0"
     inkscape:pageshadow="2"
     inkscape:window-width="1914"
     inkscape:window-height="1027"
     id="namedview3142"
     showgrid="false"
     inkscape:zoom="1.3258427"
     inkscape:cx="150.06833"
     inkscape:cy="141.86035"
     inkscape:window-x="0"
     inkscape:window-y="0"
     inkscape:window-maximized="0"
     inkscape:current-layer="g3943"
     inkscape:object-nodes="false"
     fit-margin-top="10"
     fit-margin-left="10"
     fit-margin-right="10"
     fit-margin-bottom="10" />
  <g
     id="g3943"
     transform="translate(0,1.6996106)">
    <path
       sodipodi:nodetypes="cc"
       inkscape:connector-curvature="0"
       id="path3973"
       d="m 131.47308,244.40757 -2.13255,-31.8026"
       style="color:#000000;fill:#ffffff;fill-opacity:0;fill-rule:nonzero;stroke:#c3c3c3;stroke-width:2.45861483;stroke-linecap:butt;stroke-linejoin:miter;stroke-miterlimit:4;stroke-opacity:1;stroke-dasharray:none;stroke-dashoffset:0;marker:none;visibility:visible;display:inline;overflow:visible;enable-background:accumulate" />
    <path
       sodipodi:nodetypes="ccc"
       inkscape:connector-curvature="0"
       id="path3975"
       d="M 149.08967,242.83135 C 143.30491,198.31345 145.42703,162.03464 145.2882,114.69376 119.72403,76.144679 88.803025,42.998001 52.569247,16.411671"
       style="color:#000000;fill:#ffffff;fill-opacity:0;fill-rule:nonzero;stroke:#c3c3c3;stroke-width:2.45861483;stroke-linecap:butt;stroke-linejoin:miter;stroke-miterlimit:4;stroke-opacity:1;stroke-dasharray:none;stroke-dashoffset:0;marker:none;visibility:visible;display:inline;overflow:visible;enable-background:accumulate" />
    <path
       sodipodi:nodetypes="cc"
       inkscape:connector-curvature="0"
       id="path3977"
       d="M 145.2882,114.69376 C 174.64676,83.906171 206.67129,58.450552 240.97416,37.551592"
       style="color:#000000;fill:#ffffff;fill-opacity:0;fill-rule:nonzero;stroke:#c3c3c3;stroke-width:2.45861483;stroke-linecap:butt;stroke-linejoin:miter;stroke-miterlimit:4;stroke-opacity:1;stroke-dasharray:none;stroke-dashoffset:0;marker:none;visibility:visible;display:inline;overflow:visible;enable-background:accumulate" />
    <path
       sodipodi:nodetypes="ccc"
       inkscape:connector-curvature="0"
       id="path3979"
       d="M 245.0538,10.477659 C 213.67091,84.863264 180.29605,151.86997 129.34053,212.60497 L 84.464566,194.06118"
       style="color:#000000;fill:#ffffff;fill-opacity:0;fill-rule:nonzero;stroke:#c3c3c3;stroke-width:2.45861483;stroke-linecap:butt;stroke-linejoin:miter;stroke-miterlimit:4;stroke-opacity:1;stroke-dasharray:none;stroke-dashoffset:0;marker:none;visibility:visible;display:inline;overflow:visible;enable-background:accumulate" />
    <path
       sodipodi:nodetypes="cssccc"
       inkscape:connector-curvature="0"
       d="m 207.24283,197.5796 c -10.41021,9.43729 -26.49979,8.64859 -35.93708,-1.76162 -9.4373,-10.41021 -8.64858,-26.4998 1.76162,-35.93708 1.23247,-1.11728 2.57155,-2.11101 3.6862,-3.12253 -1.23806,34.34122 -18.82144,50.99117 -47.41304,55.8466 -12.86543,-11.89803 -23.45975,-26.82419 -33.378814,-42.65071"
       style="color:#000000;fill:#ffffff;fill-opacity:0;fill-rule:nonzero;stroke:#c3c3c3;stroke-width:2.45861483;stroke-linecap:butt;stroke-linejoin:miter;stroke-miterlimit:4;stroke-opacity:1;stroke-dasharray:none;stroke-dashoffset:0;marker:none;visibility:visible;display:inline;overflow:visible;enable-background:accumulate"
       id="path3983" />
    <path
       sodipodi:nodetypes="ccc"
       inkscape:connector-curvature="0"
       id="path4004"
       d="M 245.42466,75.380925 C 214.24775,95.248188 181.35045,109.83143 145.2882,114.69376 150.8036,88.453965 167.18048,73.874261 196.46906,73.15567"
       style="color:#000000;fill:#ffffff;fill-opacity:0;fill-rule:nonzero;stroke:#c3c3c3;stroke-width:2.45861483;stroke-linecap:butt;stroke-linejoin:miter;stroke-miterlimit:4;stroke-opacity:1;stroke-dasharray:none;stroke-dashoffset:0;marker:none;visibility:visible;display:inline;overflow:visible;enable-background:accumulate" />
    <path
       sodipodi:nodetypes="cssssssssssssssssssssssscssssssssssssssssc"
       inkscape:connector-curvature="0"
       d="m 155.75899,70.740953 c -0.83821,1.434733 -2.51846,2.045505 -3.63755,0.906539 -1.45738,-1.483254 -0.52735,-3.474176 0.52911,-4.175858 1.88396,-1.251285 4.45305,-0.85228 5.64959,1.005356 1.42147,2.20687 0.59225,5.174583 -1.5726,6.555229 -2.55089,1.626841 -5.97023,0.665332 -7.5529,-1.83888 -1.85105,-2.928885 -0.74387,-6.843603 2.13344,-8.647011 3.34247,-2.094952 7.79834,-0.828059 9.84205,2.45769 2.35936,3.793223 0.91808,8.838064 -2.81305,11.142454 -4.28276,2.645086 -9.9664,1.014103 -12.55268,-3.200942 -2.95298,-4.812678 -1.11632,-11.186984 3.62278,-14.07719 5.38457,-3.283857 12.50343,-1.224905 15.72043,4.079988 3.63854,6.000046 1.34004,13.91938 -4.57399,17.486847 -6.66069,4.017878 -15.43845,1.461913 -19.3809,-5.106179 -4.42267,-7.36812 -1.5907,-17.064262 5.678,-21.407052 8.12392,-4.85376 18.80046,-1.726571 23.56975,6.290862 5.31196,8.929698 1.86973,20.65065 -6.94619,25.873437 -9.78706,5.798115 -22.61848,2.020326 -28.32258,-7.645389 -6.31305,-10.697573 -2.17857,-24.707561 8.38988,-30.921628 11.66287,-6.857563 25.66947,-1.512969 33.67504,9.181103 9.56504,12.777259 3.16772,31.489262 -9.37142,38.812508 -13.76419,8.038713 -32.38766,0.475667 -40.31178,-13.134611 -8.67699,-14.903397 -2.89151,-34.349009 11.84924,-42.905947 16.10378,-9.348174 41.67979,-1.09102 52.36898,11.574505 4.51647,5.351522 5.14513,13.122928 4.71741,20.108886 -4.42965,0.800002 -9.06219,0.294655 -13.20538,-1.46963 -11.09124,-4.722954 -16.76244,-17.888667 -11.96358,-29.075847 4.4447,-10.361568 16.77026,-15.65503 27.2268,-11.13209 9.63197,4.166277 14.54781,15.651971 10.30059,25.377768 -3.88765,8.90245 -14.53376,13.440841 -23.52872,9.469111 -8.17302,-3.608809 -12.33416,-13.415742 -8.63762,-21.679692 3.32964,-7.443728 12.29789,-11.227862 19.83065,-7.80613 6.7146,3.050084 10.12208,11.180308 6.97464,17.981614 -2.76998,5.985678 -10.06309,9.016979 -16.13258,6.143151 -5.25707,-2.489158 -7.91287,-8.946405 -5.31166,-14.283537 2.20728,-4.528889 7.83055,-6.810203 12.43451,-4.48017 3.80135,1.923847 5.7098,6.716068 3.64867,10.58546 -1.63789,3.074856 -5.6041,4.613274 -8.73642,2.817188 -2.3501,-1.347561 -3.52398,-4.497505 -1.98569,-6.887381 1.0482,-1.628493 3.40532,-2.450563 5.03834,-1.154208 0.91292,0.724722 1.41833,2.371724 0.32272,3.189305 -0.4043,0.301696 -1.64638,0.297609 -1.34026,-0.508775"
       style="color:#000000;fill:#ffffff;fill-opacity:0;fill-rule:nonzero;stroke:#c3c3c3;stroke-width:2.45861483;stroke-linecap:butt;stroke-linejoin:miter;stroke-miterlimit:4;stroke-opacity:1;stroke-dasharray:none;stroke-dashoffset:0;marker:none;visibility:visible;display:inline;overflow:visible;enable-background:accumulate"
       id="path4012" />
    <path
       transform="matrix(0.67426324,0,0,0.67426324,71.700423,26.978122)"
       d="m 223.46372,146.9361 a 146.13141,146.13141 0 1 1 -292.262815,0 146.13141,146.13141 0 1 1 292.262815,0 z"
       sodipodi:ry="146.13141"
       sodipodi:rx="146.13141"
       sodipodi:cy="146.9361"
       sodipodi:cx="77.332314"
       id="path3179"
       style="color:#000000;fill:none;fill-opacity:1;fill-rule:nonzero;stroke:#7092be;stroke-width:8;stroke-linecap:butt;stroke-linejoin:miter;stroke-miterlimit:4;stroke-opacity:1;stroke-dasharray:none;stroke-dashoffset:0;marker:none;visibility:visible;display:inline;overflow:visible;enable-background:accumulate"
       sodipodi:type="arc" />
  </g>
  <g
     id="g4028"
     transform="translate(8.834291,1.7122606)">
    <path
       inkscape:connector-curvature="0"
       id="path4073"
       style="font-size:46.55031586px;font-style:normal;font-variant:normal;font-weight:bold;font-stretch:normal;text-align:start;line-height:125%;letter-spacing:0px;word-spacing:0px;text-anchor:start;fill:#ffffff;fill-opacity:1;stroke:#ffffff;stroke-width:11.74129391;stroke-miterlimit:4;stroke-opacity:1;font-family:Bitstream Charter;-inkscape-font-specification:Bitstream Charter Bold"
       d="M 23.909975,90.366881 C 20.1974,88.917394 16.557611,88.235275 12.917831,88.235275 c -8.9538571,0 -14.2679494,5.371671 -14.2679494,12.704395 0,5.11586 2.7662406,8.10013 8.1531151,11.25492 5.6780543,3.32528 9.6090263,4.17793 9.6090263,8.78222 0,3.75161 -0.876096,4.05004 -4.807058,4.05004 -2.1838673,0 -5.6027243,1.49214 -7.4954093,0.29842 l -0.7279562,-0.9379 -0.8007519,-7.33273 -4.4405353,0 0,12.61911 c 4.513326,1.44951 8.5170934,2.13161 12.0112827,2.13161 9.390631,0 14.850314,-5.45695 14.850314,-14.06861 0,-6.13904 -4.149358,-8.4412 -10.628164,-12.10756 -4.29494,-2.47265 -6.7699973,-3.92214 -6.7699973,-7.503263 0,-3.154756 1.965487,-5.11584 5.5324703,-5.11584 1.674299,0 3.275807,0.511582 4.804513,1.364224 l 0.873551,0.937905 0.727956,6.394834 4.367737,0 0,-11.340169"
       sodipodi:nodetypes="cssssscccccsscssccccc" />
    <g
       id="g3913"
       transform="matrix(1.1493866,0,0,1.1493866,-5.6528541,-12.157218)">
      <path
         d="m 54.037642,124.38868 0,-3.9733 c -2.742139,1.67886 -5.372361,2.51828 -7.778728,2.51828 -5.204467,0 -8.618158,-3.9733 -8.618158,-10.68875 0,-6.37967 3.41369,-10.40894 7.331031,-10.40894 0.391734,0 0.839431,0.056 1.399051,0.16788 l 0,5.93198 c 1.007317,0.72751 2.070599,1.06329 3.301763,1.06329 2.406366,0 4.029268,-1.62291 4.029268,-3.80543 0,-3.41368 -3.469654,-6.099863 -9.233741,-6.099863 -8.394302,0 -14.438213,5.987953 -14.438213,14.494173 0,8.11449 5.316404,13.76667 13.430895,13.76667 3.58157,0 6.995263,-1.00732 10.576832,-2.96599"
         style="font-size:46.55031586px;font-style:normal;font-variant:normal;font-weight:bold;font-stretch:normal;text-align:start;line-height:125%;letter-spacing:0px;word-spacing:0px;text-anchor:start;fill:#ffffff;fill-opacity:1;stroke:#ffffff;stroke-width:8.34013748;stroke-miterlimit:4;stroke-opacity:1;font-family:Bitstream Charter;-inkscape-font-specification:Bitstream Charter Bold"
         id="path4075"
         inkscape:connector-curvature="0" />
      <path
         d="m 63.806523,86.390438 c -2.294442,0 -4.029269,1.790789 -4.029269,4.197154 0,2.462329 1.846751,4.141194 4.085231,4.141194 2.350405,0 4.141194,-1.734827 4.141194,-4.253117 0,-2.294442 -1.678866,-4.085231 -4.197156,-4.085231 m 0.615583,12.759352 -7.890652,2.63022 0,2.23848 3.693497,0 0,19.30692 -0.78347,0.83942 -3.021951,0.22385 0,2.5183 14.662062,0 0,-2.5183 -3.133875,-0.22385 -0.839432,-0.83942 0,-24.17562 -2.686179,0"
         style="font-size:46.55031586px;font-style:normal;font-variant:normal;font-weight:bold;font-stretch:normal;text-align:start;line-height:125%;letter-spacing:0px;word-spacing:0px;text-anchor:start;fill:#ffffff;fill-opacity:1;stroke:#ffffff;stroke-width:8.34013748;stroke-miterlimit:4;stroke-opacity:1;font-family:Bitstream Charter;-inkscape-font-specification:Bitstream Charter Bold"
         id="path4077"
         inkscape:connector-curvature="0" />
      <path
         d="m 73.190659,126.90698 14.102441,0 0,-2.46234 -2.798103,-0.22385 -0.727507,-0.78346 0,-9.17779 2.742141,0 6.4916,10.46491 0,2.18253 10.744719,0 0,-2.46234 -3.30176,-0.27981 -8.897973,-14.43821 6.379676,-7.10718 3.637537,-0.4477 0,-2.46233 -11.416264,0 0,2.46233 2.462331,0.27981 0.391734,0.61558 -8.002576,9.34566 -1.231165,0 0,-26.861783 -2.350408,0 -8.618158,2.630217 0,2.18252 4.085231,0 0,32.961666 -0.783469,0.83942 -2.910027,0.27981 0,2.46234"
         style="font-size:46.55031586px;font-style:normal;font-variant:normal;font-weight:bold;font-stretch:normal;text-align:start;line-height:125%;letter-spacing:0px;word-spacing:0px;text-anchor:start;fill:#ffffff;fill-opacity:1;stroke:#ffffff;stroke-width:8.34013748;stroke-miterlimit:4;stroke-opacity:1;font-family:Bitstream Charter;-inkscape-font-specification:Bitstream Charter Bold"
         id="path4079"
         inkscape:connector-curvature="0" />
      <path
         d="m 111.78962,86.390438 c -2.29444,0 -4.02927,1.790789 -4.02927,4.197154 0,2.462329 1.84675,4.141194 4.08523,4.141194 2.35041,0 4.14119,-1.734827 4.14119,-4.253117 0,-2.294442 -1.67886,-4.085231 -4.19715,-4.085231 m 0.61558,12.759352 -7.89065,2.63022 0,2.23848 3.6935,0 0,19.30692 -0.78347,0.83942 -3.02196,0.22385 0,2.5183 14.66207,0 0,-2.5183 -3.13388,-0.22385 -0.83943,-0.83942 0,-24.17562 -2.68618,0"
         style="font-size:46.55031586px;font-style:normal;font-variant:normal;font-weight:bold;font-stretch:normal;text-align:start;line-height:125%;letter-spacing:0px;word-spacing:0px;text-anchor:start;fill:#ffffff;fill-opacity:1;stroke:#ffffff;stroke-width:8.34013748;stroke-miterlimit:4;stroke-opacity:1;font-family:Bitstream Charter;-inkscape-font-specification:Bitstream Charter Bold"
         id="path4081"
         inkscape:connector-curvature="0" />
      <path
         d="m 124.47553,103.73868 0,16.28496 c 0,2.85406 0.0559,4.64485 2.01463,5.93198 1.28712,0.8954 2.7981,1.23117 4.64485,1.23117 2.29444,0 5.20448,-0.55963 8.5622,-1.79079 l 0,-2.68618 c -1.11924,0.27981 -2.29445,0.39173 -3.63754,0.39173 -3.69349,0 -4.64484,-1.45502 -4.64484,-5.42832 l 0,-11.96592 8.28238,0 0,-5.32636 -8.28238,0 0,-6.939292 -7.62691,0 -2.91004,5.820055 -4.14118,2.350407 4.1013,2.12656 3.63753,0"
         style="font-size:46.55031586px;font-style:normal;font-variant:normal;font-weight:bold;font-stretch:normal;text-align:start;line-height:125%;letter-spacing:0px;word-spacing:0px;text-anchor:start;fill:#ffffff;fill-opacity:1;stroke:#ffffff;stroke-width:8.34013748;stroke-miterlimit:4;stroke-opacity:1;font-family:Bitstream Charter;-inkscape-font-specification:Bitstream Charter Bold"
         id="path4083"
         inkscape:connector-curvature="0"
         sodipodi:nodetypes="cscsccsscccccccccc" />
    </g>
    <g
       id="g3920"
       transform="matrix(1.1493866,0,0,1.1493866,-5.6528541,-12.157218)">
      <path
         d="m 54.037642,124.38868 0,-3.9733 c -2.742139,1.67886 -5.372361,2.51828 -7.778728,2.51828 -5.204467,0 -8.618158,-3.9733 -8.618158,-10.68875 0,-6.37967 3.41369,-10.40894 7.331031,-10.40894 0.391734,0 0.839431,0.056 1.399051,0.16788 l 0,5.93198 c 1.007317,0.72751 2.070599,1.06329 3.301763,1.06329 2.406366,0 4.029268,-1.62291 4.029268,-3.80543 0,-3.41368 -3.469654,-6.099863 -9.233741,-6.099863 -8.394302,0 -14.438213,5.987953 -14.438213,14.494173 0,8.11449 5.316404,13.76667 13.430895,13.76667 3.58157,0 6.995263,-1.00732 10.576832,-2.96599"
         style="font-size:46.55031586px;font-style:normal;font-variant:normal;font-weight:bold;font-stretch:normal;text-align:start;line-height:125%;letter-spacing:0px;word-spacing:0px;text-anchor:start;color:#000000;fill:#7092be;fill-opacity:1;fill-rule:nonzero;stroke:none;marker:none;visibility:visible;display:inline;overflow:visible;enable-background:accumulate;font-family:Bitstream Charter;-inkscape-font-specification:Bitstream Charter Bold"
         id="path4088"
         inkscape:connector-curvature="0" />
      <path
         d="m 63.806523,86.390438 c -2.294442,0 -4.029269,1.790789 -4.029269,4.197154 0,2.462329 1.846751,4.141194 4.085231,4.141194 2.350405,0 4.141194,-1.734827 4.141194,-4.253117 0,-2.294442 -1.678866,-4.085231 -4.197156,-4.085231 m 0.615583,12.759352 -7.890652,2.63022 0,2.23848 3.693497,0 0,19.30692 -0.78347,0.83942 -3.021951,0.22385 0,2.5183 14.662062,0 0,-2.5183 -3.133875,-0.22385 -0.839432,-0.83942 0,-24.17562 -2.686179,0"
         style="font-size:46.55031586px;font-style:normal;font-variant:normal;font-weight:bold;font-stretch:normal;text-align:start;line-height:125%;letter-spacing:0px;word-spacing:0px;text-anchor:start;color:#000000;fill:#7092be;fill-opacity:1;fill-rule:nonzero;stroke:none;marker:none;visibility:visible;display:inline;overflow:visible;enable-background:accumulate;font-family:Bitstream Charter;-inkscape-font-specification:Bitstream Charter Bold"
         id="path4090"
         inkscape:connector-curvature="0" />
      <path
         d="m 73.190659,126.90698 14.102441,0 0,-2.46234 -2.798103,-0.22385 -0.727507,-0.78346 0,-9.17779 2.742141,0 6.4916,10.46491 0,2.18253 10.744719,0 0,-2.46234 -3.30176,-0.27981 -8.897973,-14.43821 6.379676,-7.10718 3.637537,-0.4477 0,-2.46233 -11.416264,0 0,2.46233 2.462331,0.27981 0.391734,0.61558 -8.002576,9.34566 -1.231165,0 0,-26.861783 -2.350408,0 -8.618158,2.630217 0,2.18252 4.085231,0 0,32.961666 -0.783469,0.83942 -2.910027,0.27981 0,2.46234"
         style="font-size:46.55031586px;font-style:normal;font-variant:normal;font-weight:bold;font-stretch:normal;text-align:start;line-height:125%;letter-spacing:0px;word-spacing:0px;text-anchor:start;color:#000000;fill:#7092be;fill-opacity:1;fill-rule:nonzero;stroke:none;marker:none;visibility:visible;display:inline;overflow:visible;enable-background:accumulate;font-family:Bitstream Charter;-inkscape-font-specification:Bitstream Charter Bold"
         id="path4092"
         inkscape:connector-curvature="0" />
      <path
         d="m 111.78962,86.390438 c -2.29444,0 -4.02927,1.790789 -4.02927,4.197154 0,2.462329 1.84675,4.141194 4.08523,4.141194 2.35041,0 4.14119,-1.734827 4.14119,-4.253117 0,-2.294442 -1.67886,-4.085231 -4.19715,-4.085231 m 0.61558,12.759352 -7.89065,2.63022 0,2.23848 3.6935,0 0,19.30692 -0.78347,0.83942 -3.02196,0.22385 0,2.5183 14.66207,0 0,-2.5183 -3.13388,-0.22385 -0.83943,-0.83942 0,-24.17562 -2.68618,0"
         style="font-size:46.55031586px;font-style:normal;font-variant:normal;font-weight:bold;font-stretch:normal;text-align:start;line-height:125%;letter-spacing:0px;word-spacing:0px;text-anchor:start;color:#000000;fill:#7092be;fill-opacity:1;fill-rule:nonzero;stroke:none;marker:none;visibility:visible;display:inline;overflow:visible;enable-background:accumulate;font-family:Bitstream Charter;-inkscape-font-specification:Bitstream Charter Bold"
         id="path4094"
         inkscape:connector-curvature="0" />
      <path
         d="m 124.47553,103.73868 0,16.28496 c 0,2.85406 0.0559,4.64485 2.01463,5.93198 1.28712,0.8954 2.7981,1.23117 4.64485,1.23117 2.29444,0 5.20448,-0.55963 8.5622,-1.79079 l 0,-2.68618 c -1.11924,0.27981 -2.29445,0.39173 -3.63754,0.39173 -3.69349,0 -4.64484,-1.45502 -4.64484,-5.42832 l 0,-13.93455 8.28238,0 0,-3.35773 -8.28238,0 0,-6.939292 -3.52561,0 -2.91004,5.820055 -4.14118,2.350407 0,2.12656 3.63753,0"
         style="font-size:46.55031586px;font-style:normal;font-variant:normal;font-weight:bold;font-stretch:normal;text-align:start;line-height:125%;letter-spacing:0px;word-spacing:0px;text-anchor:start;color:#000000;fill:#7092be;fill-opacity:1;fill-rule:nonzero;stroke:none;marker:none;visibility:visible;display:inline;overflow:visible;enable-background:accumulate;font-family:Bitstream Charter;-inkscape-font-specification:Bitstream Charter Bold"
         id="path4096"
         inkscape:connector-curvature="0" />
    </g>
    <path
       style="color:#000000;fill:#ffffff;fill-opacity:1;fill-rule:nonzero;stroke:none;stroke-width:2;marker:none;visibility:visible;display:inline;overflow:visible;enable-background:accumulate"
       d="m 144.34599,140.94181 42.17851,0 0,45.08738 -42.17851,0 z"
       id="rect4062"
       inkscape:connector-curvature="0" />
    <g
       style="font-size:94.28981018px;font-style:normal;font-variant:normal;font-weight:bold;font-stretch:normal;text-align:center;line-height:125%;letter-spacing:0px;word-spacing:0px;text-anchor:middle;fill:#ffffff;fill-opacity:1;stroke:#ffffff;stroke-width:10;stroke-miterlimit:4;stroke-opacity:1;font-family:Utopia;-inkscape-font-specification:Utopia Bold"
       id="text4024"
       transform="matrix(0.77133894,0,0,0.77133894,45.444645,40.20936)">
      <path
         d="m 84.721643,183.14109 c 0,4.80877 -0.754325,5.28023 -7.448895,5.5631 l 0,3.58301 29.984162,0 0,-3.58301 c -6.69457,-0.28287 -7.448897,-0.75433 -7.448897,-5.5631 l 0,-46.95633 c 0,-4.80877 0.754327,-5.28023 7.448897,-5.56309 l 0,-3.58302 -29.984162,0 0,3.58302 c 6.69457,0.28286 7.448895,0.75432 7.448895,5.56309 l 0,19.4237 -24.79822,0 0,-19.4237 c 0,-4.80877 0.754325,-5.28023 7.448895,-5.56309 l 0,-3.58302 -29.98416,0 0,3.58302 c 6.69457,0.28286 7.448895,0.75432 7.448895,5.56309 l 0,46.95633 c 0,4.80877 -0.754325,5.28023 -7.448895,5.5631 l 0,3.58301 29.98416,0 0,-3.58301 c -6.69457,-0.28287 -4.79101,-0.77617 -5.248781,-5.5631 l -2.200114,-23.00671 24.79822,0 0,23.00671"
         style="fill:#ffffff;stroke:#ffffff;font-family:Utopia;-inkscape-font-specification:Utopia Bold"
         id="path4100"
         inkscape:connector-curvature="0"
         sodipodi:nodetypes="cccccssccccsccsccccssccccsccc" />
      <path
         d="m 120.89504,183.14109 c 0,4.80877 -0.75432,5.28023 -7.44889,5.5631 l 0,3.58301 52.708,0 1.13148,-19.61228 -3.58301,0 c -3.39443,10.089 -4.99737,15.27495 -16.12356,15.27495 -8.67465,0 -11.59765,-0.84861 -11.59765,-6.88316 l 0,-20.55518 8.95754,0 c 5.94025,0 7.16602,1.60294 8.67466,8.48609 l 3.58301,0 0,-21.87524 -3.58301,0 c -1.50864,6.88315 -2.73441,8.48608 -8.67466,8.48608 l -8.95754,0 0,-20.83804 c 0,-2.73441 0.66004,-3.39444 3.30015,-3.39444 l 7.07173,0 c 9.71184,0 11.40907,3.77161 14.33205,13.10629 l 3.58302,0 0,-17.44362 -50.82221,0 0,3.58302 c 6.69457,0.28286 7.44889,0.75432 7.44889,5.56309 l 0,46.95633"
         style="fill:#ffffff;stroke:#ffffff;font-family:Utopia;-inkscape-font-specification:Utopia Bold"
         id="path4102"
         inkscape:connector-curvature="0" />
      <path
         d="m 195.28086,134.86471 c 0,-2.64012 0.75432,-3.48873 5.5631,-3.48873 6.31741,0 11.69194,4.24306 11.69194,15.08637 0,7.16602 -2.45155,15.55782 -11.97481,15.55782 -3.6773,0 -5.28023,-0.47145 -5.28023,-4.05446 l 0,-23.101 m 9.05182,57.42249 0,-3.39443 c -8.29749,-0.47145 -0.10304,-0.94291 -0.10304,-5.75168 l 0,-16.78359 5.65739,0 c 8.86323,0 6.89191,-1.60293 11.22924,-4.71449 4.71448,-3.39443 7.26031,-8.48609 7.26031,-15.46353 0,-7.54317 -3.39443,-12.72912 -8.01463,-15.55781 -4.6202,-2.8287 -10.74905,-3.58302 -18.38651,-3.58302 l -29.22984,0 0,3.58302 c 6.69457,0.28286 7.44889,0.75432 7.44889,5.56309 l 0,46.95633 c 0,4.80877 -0.75432,5.28023 -7.44889,5.5631 l 0,3.58301 31.58708,0"
         style="fill:#ffffff;stroke:#ffffff;font-family:Utopia;-inkscape-font-specification:Utopia Bold"
         id="path4104"
         inkscape:connector-curvature="0"
         sodipodi:nodetypes="csssscccscscsssccssccc" />
    </g>
    <g
       style="font-size:94.28981018px;font-style:normal;font-variant:normal;font-weight:bold;font-stretch:normal;text-align:center;line-height:125%;letter-spacing:0px;word-spacing:0px;text-anchor:middle;color:#000000;fill:#7092be;fill-opacity:1;fill-rule:nonzero;stroke:none;marker:none;visibility:visible;display:inline;overflow:visible;enable-background:accumulate;font-family:Utopia;-inkscape-font-specification:Utopia Bold"
       id="text3010"
       transform="matrix(0.88660666,0,0,0.88660666,26.086232,22.371056)">
      <path
         d="m 95.541259,179.45067 c 0,4.18358 -0.65626,4.59374 -6.480465,4.83984 l 0,3.11718 26.085926,0 0,-3.11718 c -5.82421,-0.2461 -6.48047,-0.65626 -6.48047,-4.83984 l 0,-40.85154 c 0,-4.18358 0.65626,-4.59375 6.48047,-4.83984 l 0,-3.11719 -26.085926,0 0,3.11719 c 5.824205,0.24609 6.480465,0.65626 6.480465,4.83984 l 0,16.89842 -21.574204,0 0,-16.89842 c 0,-4.18358 0.656255,-4.59375 6.480464,-4.83984 l 0,-3.11719 -26.08592,0 0,3.11719 c 5.824209,0.24609 6.480464,0.65626 6.480464,4.83984 l 0,40.85154 c 0,4.18358 -0.656255,4.59374 -6.480464,4.83984 l 0,3.11718 26.08592,0 0,-3.11718 c -5.824209,-0.2461 -6.480464,-0.65626 -6.480464,-4.83984 l 0,-20.01561 21.574204,0 0,20.01561"
         style="color:#000000;fill:#7092be;fill-opacity:1;fill-rule:nonzero;stroke:none;marker:none;visibility:visible;display:inline;overflow:visible;enable-background:accumulate;font-family:Utopia;-inkscape-font-specification:Utopia Bold"
         id="path4107"
         inkscape:connector-curvature="0" />
      <path
         d="m 127.01175,179.45067 c 0,4.18358 -0.65625,4.59374 -6.48046,4.83984 l 0,3.11718 45.85544,0 0.98437,-17.06249 -3.11718,0 c -2.95312,8.77733 -4.34766,13.28906 -14.02734,13.28906 -7.54685,0 -10.08984,-0.73829 -10.08984,-5.98828 l 0,-17.88281 7.79298,0 c 5.16795,0 6.23436,1.39455 7.54686,7.38282 l 3.11719,0 0,-19.03124 -3.11719,0 c -1.3125,5.98827 -2.37891,7.3828 -7.54686,7.3828 l -7.79298,0 0,-18.12888 c 0,-2.37891 0.57423,-2.95313 2.8711,-2.95313 l 6.15234,0 c 8.4492,0 9.92577,3.28126 12.46874,11.40234 l 3.11719,0 0,-15.17578 -44.21482,0 0,3.11719 c 5.82421,0.24609 6.48046,0.65626 6.48046,4.83984 l 0,40.85154"
         style="color:#000000;fill:#7092be;fill-opacity:1;fill-rule:nonzero;stroke:none;marker:none;visibility:visible;display:inline;overflow:visible;enable-background:accumulate;font-family:Utopia;-inkscape-font-specification:Utopia Bold"
         id="path4109"
         inkscape:connector-curvature="0" />
      <path
         d="m 191.72667,137.4507 c 0,-2.29688 0.65625,-3.03516 4.83985,-3.03516 5.49608,0 10.17187,3.69142 10.17187,13.12499 0,6.23436 -2.13283,13.53515 -10.41797,13.53515 -3.19921,0 -4.59375,-0.41016 -4.59375,-3.52734 l 0,-20.09764 m 7.875,49.95699 0,-2.95312 c -7.21874,-0.41016 -7.875,-0.82032 -7.875,-5.0039 l 0,-14.60156 4.92188,0 c 7.71092,0 13.78124,-1.39453 17.55467,-4.10156 4.10155,-2.95312 6.3164,-7.38281 6.3164,-13.45312 0,-6.56248 -2.95312,-11.0742 -6.97265,-13.53514 -4.01953,-2.46094 -9.35156,-3.11719 -15.99608,-3.11719 l -25.42967,0 0,3.11719 c 5.82421,0.24609 6.48046,0.65626 6.48046,4.83984 l 0,40.85154 c 0,4.18358 -0.65625,4.59374 -6.48046,4.83984 l 0,3.11718 27.48045,0"
         style="color:#000000;fill:#7092be;fill-opacity:1;fill-rule:nonzero;stroke:none;marker:none;visibility:visible;display:inline;overflow:visible;enable-background:accumulate;font-family:Utopia;-inkscape-font-specification:Utopia Bold"
         id="path4111"
         inkscape:connector-curvature="0" />
    </g>
    <text
       xml:space="preserve"
       style="font-size:65.2430191px;font-style:normal;font-variant:normal;font-weight:normal;font-stretch:normal;text-align:center;line-height:125%;letter-spacing:0px;word-spacing:0px;text-anchor:middle;fill:#7092be;fill-opacity:1;stroke:none;font-family:Utopia;-inkscape-font-specification:Utopia"
       x="11.72096"
       y="130.6145"
       id="text3026"
       sodipodi:linespacing="125%"
       transform="scale(0.9897719,1.0103338)"><tspan
         sodipodi:role="line"
         id="tspan3028"
         x="11.72096"
         y="130.6145"
         style="font-style:normal;font-variant:normal;font-weight:bold;font-stretch:normal;fill:#7092be;fill-opacity:1;font-family:Bitstream Charter;-inkscape-font-specification:Bitstream Charter">S</tspan></text>
  </g>
</svg>
